{"title":"True Detective S02E08 720p mHD HDTV EN-SUB x264-[MULVAcoded]","uid":12217714,"size":451905848,"categoryP":"video","categoryS":"hd___tv_shows","magnet":"?xt=urn:btih:db5fa1ec367494006c4fcf52d097828ad5127018&amp;dn=True+Detective+S02E08+720p+mHD+HDTV+EN-SUB+x264-%5BMULVAcoded%5D&amp;tr=udp%3A%2F%2Ftracker.openbittorrent.com%3A80&amp;tr=udp%3A%2F%2Fopen.demonii.com%3A1337&amp;tr=udp%3A%2F%2Ftracker.coppersurfer.tk%3A6969&amp;tr=udp%3A%2F%2Fexodus.desync.com%3A6969","seeders":2,"leechers":0,"uploader":"Mulva1989","files":1,"time":1439279599,"description":"True Detective S02E08 720p mHD HDTV EN-SUB x264-[MULVAcoded]\n\nFrank, Ray and Ani weigh their options as Caspere's killer and the scope of corruption is revealed. \n\nScreens @ &lt;a href=&quot;\nhttps://yuq.me/users/50/321/iQKlt2yr8I.jpg&quot; rel=&quot;nofollow&quot; target=&quot;_NEW&quot;&gt;\nhttps://yuq.me/users/50/321/iQKlt2yr8I.jpg&lt;/a&gt; &lt;a href=&quot;\nhttps://yuq.me/users/50/321/2hNWkEVr0K.jpg&quot; rel=&quot;nofollow&quot; target=&quot;_NEW&quot;&gt;\nhttps://yuq.me/users/50/321/2hNWkEVr0K.jpg&lt;/a&gt; &lt;a href=&quot;\nhttps://yuq.me/users/50/321/qd23F5szGO.jpg&quot; rel=&quot;nofollow&quot; target=&quot;_NEW&quot;&gt;\nhttps://yuq.me/users/50/321/qd23F5szGO.jpg&lt;/a&gt;\n\nFormat : MPEG-4\nFormat profile : Base Media\nCodec ID : isom\nFile size : 431 MiB\nDuration : 1h 26mn\nOverall bit rate mode : Variable\nOverall bit rate : 693 Kbps\nEncoded date : UTC 2015-08-11 05:30:11\nTagged date : UTC 2015-08-11 05:30:11\n\nVideo\nID : 2\nFormat : AVC\nFormat/Info : Advanced Video Codec\nFormat profile : &lt;a class=&quot;__cf_email__&quot; href=&quot;/cdn-cgi/l/email-protection&quot; data-cfemail=&quot;5b13323c331b176e756b&quot;&gt;[email&amp;#160;protected]&lt;/a&gt;&lt;script data-cfhash='f9e31' type=&quot;text/javascript&quot;&gt;\n/* &lt;![CDATA[ */!function(){try{var t=&quot;currentScript&quot;in document?document.currentScript:function(){for(var t=document.getElementsByTagName(&quot;script&quot;),e=t.length;e--;)if(t[e].getAttribute(&quot;data-cfhash&quot;))return t[e]}();if(t&amp;&amp;t.previousSibling){var e,r,n,i,c=t.previousSibling,a=c.getAttribute(&quot;data-cfemail&quot;);if(a){for(e=&quot;&quot;,r=parseInt(a.substr(0,2),16),n=2;a.length-n;n+=2)i=parseInt(a.substr(n,2),16)^r,e+=String.fromCharCode(i);e=document.createTextNode(e),c.parentNode.replaceChild(e,c)}t.parentNode.removeChild(t);}}catch(u){}}()/* ]]&gt; */&lt;/script&gt;\nFormat settings, CABAC : Yes\nFormat settings, ReFrames : 16 frames\nCodec ID : avc1\nCodec ID/Info : Advanced Video Coding\nDuration : 1h 26mn\nBit rate : 593 Kbps\nMaximum bit rate : 11.9 Mbps\nWidth : 1 280 pixels\nHeight : 720 pixels\nDisplay aspect ratio : 16:9\nFrame rate mode : Variable\nFrame rate : 23.976 fps\nMinimum frame rate : 23.974 fps\nMaximum frame rate : 23.981 fps\nColor space : YUV\nChroma subsampling : 4:2:0\nBit depth : 8 bits\nScan type : Progressive\nBits/(Pixel*Frame) : 0.027\nStream size : 368 MiB (85%)\nWriting library : x264 core 130 r2273 b3065e6\nEncoding settings : cabac=1 / ref=16 / deblock=1:0:0 / analyse=0x3:0x113 / me=umh / subme=8 / psy=1 / psy_rd=1.00:0.00 / mixed_ref=1 / me_range=16 / chroma_me=1 / trellis=1 / 8x8dct=1 / cqm=0 / deadzone=21,11 / fast_pskip=1 / chroma_qp_offset=-2 / threads=6 / lookahead_threads=3 / sliced_threads=0 / nr=0 / decimate=1 / interlaced=0 / bluray_compat=0 / constrained_intra=0 / bframes=16 / b_pyramid=2 / b_adapt=2 / b_bias=0 / direct=3 / weightb=1 / open_gop=0 / weightp=2 / keyint=240 / keyint_min=24 / scenecut=40 / intra_refresh=0 / rc_lookahead=50 / rc=crf / mbtree=1 / crf=27.0 / qcomp=0.60 / qpmin=0 / qpmax=69 / qpstep=4 / ip_ratio=1.40 / aq=1:1.00\nEncoded date : UTC 2015-08-10 19:15:08\nTagged date : UTC 2015-08-11 05:30:28\nColor primaries : BT.709\nTransfer characteristics : BT.709\nMatrix coefficients : BT.709\nColor range : Limited\n\nAudio\nID : 1\nFormat : AAC\nFormat/Info : Advanced Audio Codec\nFormat profile : LC\nCodec ID : 40\nDuration : 1h 26mn\nBit rate mode : Variable\nBit rate : 96.0 Kbps\nMaximum bit rate : 117 Kbps\nChannel(s) : 2 channels\nChannel positions : Front: L R\nSampling rate : 48.0 KHz\nCompression mode : Lossy\nStream size : 59.7 MiB (14%)\nEncoded date : UTC 2015-08-11 05:30:11\nTagged date : UTC 2015-08-11 05:30:28\n\nText\nID : 3\nFormat : Timed Text\nMuxing mode : sbtl\nCodec ID : tx3g\nDuration : 1h 26mn\nBit rate mode : Variable\nBit rate : 53 bps\nStream size : 33.7 KiB (0%)\nTitle : 1True.Detective.S02E08.720p.mHD.HDTV.EN-SUB.x264-[MULVAcoded].srt:hdlr=sbtl:lang=en:group=2:layer=-1 - Imported with GPAC 0.5.0-rev\nLanguage : English\nEncoded date : UTC 2015-08-11 05:30:28\nTagged date : UTC 2015-08-11 05:30:28","torrent":{"xt":"urn:btih:db5fa1ec367494006c4fcf52d097828ad5127018","amp;dn":"True+Detective+S02E08+720p+mHD+HDTV+EN-SUB+x264-%5BMULVAcoded%5D","amp;tr":["udp%3A%2F%2Ftracker.openbittorrent.com%3A80","udp%3A%2F%2Fopen.demonii.com%3A1337","udp%3A%2F%2Ftracker.coppersurfer.tk%3A6969","udp%3A%2F%2Fexodus.desync.com%3A6969"],"infoHash":"db5fa1ec367494006c4fcf52d097828ad5127018","infoHashBuffer":{"type":"Buffer","data":[219,95,161,236,54,116,148,0,108,79,207,82,208,151,130,138,213,18,112,24]},"announce":[],"urlList":[]}}